# xmcd CD database file
#
# Track frame offsets:
#	150
#	62700
#	126218
#	174078
#	236387
#
# Disc length: 3910 seconds
#
# Revision: 1
# Processed by: cddbd v1.5.2PL0 Copyright (c) Steve Scherf et al.
# Submitted via: CDex 1.51
#
DISCID=360f4405
DTITLE=Buck Clayton - Quadromania (4)
DYEAR=1990
DGENRE=Jazz
TTITLE0=How high the Fi
TTITLE1=Blue Moon
TTITLE2=Jumpin' at the Woodside
TTITLE3=Sentimental Journey
TTITLE4=Moten Swing
EXTD=YEAR: 1990
EXTT0=
EXTT1=
EXTT2=
EXTT3=
EXTT4=
PLAYORDER=
